<svg width="512" height="512" viewBox="0 0 512 512" fill="none" xmlns="http://www.w3.org/2000/svg">
<g clip-path="url(#clip0_1100_213)">
<rect width="512" height="512" rx="100" fill="#161616"/>
<path d="M156.1 306.44C156.1 331.893 160.547 350.293 169.44 361.64C178.333 372.68 192.287 378.2 211.3 378.2C228.78 378.2 245.34 374.213 260.98 366.24C276.927 357.96 290.267 346.613 301 332.2L311.58 336.8C301.46 362.867 283.827 383.72 258.68 399.36C233.84 414.693 207.773 422.36 180.48 422.36C144.907 422.36 119.147 413.467 103.2 395.68C87.56 377.587 79.74 348.76 79.74 309.2C79.74 283.747 82.96 257.22 89.4 229.62C95.84 202.02 104.733 177.333 116.08 155.56C130.8 127.653 148.587 106.493 169.44 92.08C190.6 77.36 214.213 70 240.28 70C264.813 70 283.673 75.3666 296.86 86.1C310.353 96.5266 317.1 111.707 317.1 131.64C317.1 145.44 314.34 156.02 308.82 163.38C303.3 170.433 295.327 173.96 284.9 173.96C279.687 173.96 274.78 173.04 270.18 171.2C265.887 169.053 262.053 165.987 258.68 162C264.2 159.24 269.107 153.72 273.4 145.44C277.693 136.853 279.84 128.267 279.84 119.68C279.84 110.787 277.387 103.887 272.48 98.98C267.573 94.0733 260.673 91.62 251.78 91.62C238.287 91.62 224.947 99.9 211.76 116.46C198.573 132.713 187.073 155.253 177.26 184.08C170.513 203.707 165.3 224.253 161.62 245.72C157.94 266.88 156.1 287.12 156.1 306.44ZM295.972 362.56C295.972 358.573 296.279 354.127 296.892 349.22C297.506 344.007 298.426 338.487 299.652 332.66L348.872 102.2L416.952 93L364.052 341.4C363.439 344.16 362.979 346.767 362.672 349.22C362.366 351.367 362.212 353.667 362.212 356.12C362.212 362.253 363.592 366.7 366.352 369.46C369.419 371.913 374.326 373.14 381.072 373.14C389.659 373.14 397.786 369.46 405.452 362.1C413.119 354.433 418.792 344.62 422.472 332.66H441.792C431.979 360.567 418.792 381.727 402.232 396.14C385.672 410.553 366.659 417.76 345.192 417.76C329.859 417.76 317.746 413.007 308.852 403.5C300.266 393.687 295.972 380.04 295.972 362.56Z" fill="white"/>
</g>
<defs>
<clipPath id="clip0_1100_213">
<rect width="512" height="512" fill="white"/>
</clipPath>
</defs>
</svg>
