<svg width="600" height="338" viewBox="0 0 600 338" fill="none" xmlns="http://www.w3.org/2000/svg">
<rect width="600" height="338" fill="url(#paint0_linear_1106_248)"/>
<path d="M263.32 140.182H267.272V154.436C267.272 155.999 266.903 157.373 266.164 158.559C265.433 159.745 264.403 160.672 263.075 161.339C261.746 162 260.195 162.33 258.419 162.33C256.636 162.33 255.081 162 253.753 161.339C252.425 160.672 251.395 159.745 250.663 158.559C249.932 157.373 249.566 155.999 249.566 154.436V140.182H253.518V154.106C253.518 155.015 253.717 155.825 254.115 156.535C254.52 157.245 255.088 157.803 255.82 158.207C256.551 158.605 257.418 158.804 258.419 158.804C259.42 158.804 260.287 158.605 261.018 158.207C261.757 157.803 262.325 157.245 262.723 156.535C263.121 155.825 263.32 155.015 263.32 154.106V140.182ZM275.254 152.412V162H271.398V140.182H275.169V148.417H275.361C275.744 147.494 276.337 146.766 277.14 146.233C277.949 145.693 278.979 145.423 280.229 145.423C281.366 145.423 282.356 145.661 283.202 146.137C284.047 146.613 284.7 147.309 285.162 148.225C285.631 149.141 285.865 150.26 285.865 151.581V162H282.008V152.178C282.008 151.077 281.724 150.221 281.156 149.61C280.595 148.992 279.807 148.683 278.791 148.683C278.109 148.683 277.498 148.832 276.959 149.131C276.426 149.422 276.007 149.844 275.702 150.398C275.403 150.952 275.254 151.624 275.254 152.412ZM316.904 151.091C316.904 153.442 316.463 155.455 315.583 157.131C314.709 158.8 313.516 160.079 312.003 160.967C310.497 161.854 308.789 162.298 306.879 162.298C304.968 162.298 303.257 161.854 301.744 160.967C300.238 160.072 299.045 158.79 298.164 157.121C297.291 155.445 296.854 153.435 296.854 151.091C296.854 148.74 297.291 146.73 298.164 145.061C299.045 143.385 300.238 142.103 301.744 141.215C303.257 140.327 304.968 139.884 306.879 139.884C308.789 139.884 310.497 140.327 312.003 141.215C313.516 142.103 314.709 143.385 315.583 145.061C316.463 146.73 316.904 148.74 316.904 151.091ZM312.93 151.091C312.93 149.436 312.671 148.04 312.152 146.904C311.641 145.761 310.931 144.898 310.021 144.315C309.112 143.726 308.065 143.431 306.879 143.431C305.693 143.431 304.645 143.726 303.736 144.315C302.827 144.898 302.113 145.761 301.595 146.904C301.083 148.04 300.828 149.436 300.828 151.091C300.828 152.746 301.083 154.145 301.595 155.288C302.113 156.425 302.827 157.288 303.736 157.877C304.645 158.46 305.693 158.751 306.879 158.751C308.065 158.751 309.112 158.46 310.021 157.877C310.931 157.288 311.641 156.425 312.152 155.288C312.671 154.145 312.93 152.746 312.93 151.091ZM324.326 152.412V162H320.47V140.182H324.241V148.417H324.433C324.816 147.494 325.409 146.766 326.212 146.233C327.022 145.693 328.051 145.423 329.301 145.423C330.438 145.423 331.429 145.661 332.274 146.137C333.119 146.613 333.772 147.309 334.234 148.225C334.703 149.141 334.937 150.26 334.937 151.581V162H331.081V152.178C331.081 151.077 330.797 150.221 330.228 149.61C329.667 148.992 328.879 148.683 327.863 148.683C327.181 148.683 326.571 148.832 326.031 149.131C325.498 149.422 325.079 149.844 324.774 150.398C324.475 150.952 324.326 151.624 324.326 152.412ZM343.588 140.182L343.236 155.587H339.806L339.465 140.182H343.588ZM341.521 162.234C340.875 162.234 340.321 162.007 339.859 161.553C339.404 161.098 339.177 160.544 339.177 159.891C339.177 159.251 339.404 158.705 339.859 158.25C340.321 157.795 340.875 157.568 341.521 157.568C342.153 157.568 342.7 157.795 343.162 158.25C343.63 158.705 343.865 159.251 343.865 159.891C343.865 160.324 343.755 160.718 343.534 161.073C343.321 161.428 343.037 161.712 342.682 161.925C342.334 162.131 341.947 162.234 341.521 162.234ZM146.492 182.18C146.392 181.249 145.973 180.525 145.235 180.006C144.503 179.488 143.551 179.229 142.379 179.229C141.556 179.229 140.849 179.353 140.259 179.602C139.67 179.85 139.219 180.187 138.906 180.614C138.594 181.04 138.434 181.526 138.427 182.073C138.427 182.528 138.53 182.922 138.736 183.256C138.949 183.589 139.237 183.874 139.599 184.108C139.961 184.335 140.362 184.527 140.803 184.683C141.243 184.839 141.687 184.971 142.134 185.077L144.18 185.589C145.004 185.781 145.796 186.04 146.556 186.366C147.323 186.693 148.008 187.105 148.612 187.602C149.222 188.099 149.705 188.7 150.061 189.403C150.416 190.106 150.593 190.93 150.593 191.874C150.593 193.153 150.267 194.278 149.613 195.251C148.96 196.217 148.015 196.974 146.779 197.521C145.551 198.06 144.063 198.33 142.316 198.33C140.618 198.33 139.144 198.067 137.894 197.542C136.651 197.016 135.678 196.249 134.975 195.241C134.279 194.232 133.903 193.004 133.846 191.555H137.735C137.791 192.315 138.026 192.947 138.438 193.451C138.85 193.955 139.386 194.332 140.046 194.58C140.714 194.829 141.46 194.953 142.284 194.953C143.143 194.953 143.896 194.825 144.542 194.57C145.195 194.307 145.707 193.945 146.076 193.483C146.445 193.014 146.634 192.467 146.641 191.842C146.634 191.274 146.467 190.805 146.14 190.436C145.813 190.06 145.355 189.747 144.766 189.499C144.183 189.243 143.502 189.016 142.72 188.817L140.238 188.178C138.441 187.716 137.021 187.016 135.977 186.079C134.94 185.134 134.421 183.881 134.421 182.318C134.421 181.033 134.769 179.907 135.465 178.941C136.169 177.975 137.124 177.226 138.331 176.693C139.539 176.153 140.906 175.884 142.433 175.884C143.981 175.884 145.338 176.153 146.502 176.693C147.674 177.226 148.594 177.968 149.262 178.92C149.929 179.864 150.274 180.951 150.295 182.18H146.492ZM161.084 198.32C159.486 198.32 158.101 197.968 156.929 197.265C155.757 196.562 154.848 195.578 154.202 194.314C153.563 193.05 153.243 191.572 153.243 189.882C153.243 188.192 153.563 186.711 154.202 185.44C154.848 184.168 155.757 183.181 156.929 182.478C158.101 181.775 159.486 181.423 161.084 181.423C162.682 181.423 164.067 181.775 165.239 182.478C166.411 183.181 167.316 184.168 167.956 185.44C168.602 186.711 168.925 188.192 168.925 189.882C168.925 191.572 168.602 193.05 167.956 194.314C167.316 195.578 166.411 196.562 165.239 197.265C164.067 197.968 162.682 198.32 161.084 198.32ZM161.105 195.23C161.972 195.23 162.696 194.992 163.279 194.516C163.861 194.033 164.294 193.387 164.578 192.577C164.87 191.768 165.015 190.866 165.015 189.871C165.015 188.87 164.87 187.964 164.578 187.155C164.294 186.338 163.861 185.688 163.279 185.205C162.696 184.722 161.972 184.481 161.105 184.481C160.218 184.481 159.479 184.722 158.89 185.205C158.307 185.688 157.87 186.338 157.579 187.155C157.295 187.964 157.153 188.87 157.153 189.871C157.153 190.866 157.295 191.768 157.579 192.577C157.87 193.387 158.307 194.033 158.89 194.516C159.479 194.992 160.218 195.23 161.105 195.23ZM172.198 198V181.636H175.884V184.417H176.076C176.417 183.479 176.982 182.748 177.77 182.222C178.558 181.69 179.499 181.423 180.593 181.423C181.701 181.423 182.635 181.693 183.395 182.233C184.162 182.766 184.702 183.494 185.014 184.417H185.185C185.547 183.508 186.158 182.783 187.017 182.244C187.884 181.697 188.91 181.423 190.096 181.423C191.602 181.423 192.83 181.899 193.782 182.851C194.734 183.803 195.21 185.191 195.21 187.016V198H191.343V187.613C191.343 186.597 191.073 185.855 190.533 185.386C189.993 184.911 189.333 184.673 188.551 184.673C187.621 184.673 186.893 184.964 186.367 185.546C185.849 186.121 185.59 186.871 185.59 187.794V198H181.808V187.453C181.808 186.608 181.552 185.933 181.041 185.429C180.536 184.925 179.876 184.673 179.059 184.673C178.505 184.673 178.001 184.815 177.546 185.099C177.092 185.376 176.73 185.77 176.46 186.281C176.19 186.786 176.055 187.375 176.055 188.05V198H172.198ZM206.366 198.32C204.726 198.32 203.309 197.979 202.116 197.297C200.93 196.608 200.017 195.635 199.378 194.378C198.739 193.114 198.419 191.626 198.419 189.914C198.419 188.231 198.739 186.754 199.378 185.482C200.024 184.204 200.926 183.21 202.084 182.499C203.241 181.782 204.602 181.423 206.164 181.423C207.173 181.423 208.124 181.587 209.019 181.913C209.921 182.233 210.717 182.73 211.406 183.405C212.102 184.08 212.648 184.939 213.046 185.983C213.444 187.02 213.643 188.256 213.643 189.69V190.873H200.23V188.273H209.946C209.939 187.535 209.779 186.878 209.467 186.303C209.154 185.72 208.717 185.262 208.156 184.928C207.602 184.594 206.956 184.428 206.217 184.428C205.429 184.428 204.737 184.619 204.14 185.003C203.543 185.379 203.078 185.876 202.744 186.494C202.418 187.105 202.251 187.776 202.244 188.508V190.777C202.244 191.729 202.418 192.545 202.766 193.227C203.114 193.902 203.6 194.42 204.225 194.783C204.85 195.138 205.582 195.315 206.42 195.315C206.981 195.315 207.489 195.237 207.943 195.081C208.398 194.918 208.792 194.68 209.126 194.367C209.46 194.055 209.712 193.668 209.882 193.206L213.483 193.611C213.256 194.562 212.822 195.393 212.183 196.104C211.551 196.807 210.741 197.354 209.754 197.744C208.767 198.128 207.638 198.32 206.366 198.32ZM225.077 181.636V184.619H215.67V181.636H225.077ZM217.992 177.716H221.849V193.078C221.849 193.597 221.927 193.994 222.083 194.271C222.246 194.541 222.459 194.726 222.722 194.825C222.985 194.925 223.276 194.974 223.596 194.974C223.837 194.974 224.057 194.957 224.256 194.921C224.462 194.886 224.618 194.854 224.725 194.825L225.375 197.84C225.169 197.911 224.874 197.989 224.491 198.075C224.114 198.16 223.653 198.21 223.106 198.224C222.14 198.252 221.27 198.107 220.496 197.787C219.721 197.46 219.107 196.956 218.653 196.274C218.205 195.592 217.985 194.74 217.992 193.717V177.716ZM232.51 188.412V198H228.653V176.182H232.425V184.417H232.616C233 183.494 233.593 182.766 234.396 182.233C235.205 181.693 236.235 181.423 237.485 181.423C238.621 181.423 239.612 181.661 240.457 182.137C241.303 182.613 241.956 183.309 242.418 184.225C242.886 185.141 243.121 186.26 243.121 187.581V198H239.264V188.178C239.264 187.077 238.98 186.221 238.412 185.61C237.851 184.992 237.062 184.683 236.047 184.683C235.365 184.683 234.754 184.832 234.214 185.131C233.682 185.422 233.263 185.844 232.957 186.398C232.659 186.952 232.51 187.624 232.51 188.412ZM247.052 198V181.636H250.908V198H247.052ZM248.991 179.314C248.38 179.314 247.854 179.112 247.414 178.707C246.974 178.295 246.754 177.801 246.754 177.226C246.754 176.643 246.974 176.15 247.414 175.745C247.854 175.333 248.38 175.127 248.991 175.127C249.609 175.127 250.134 175.333 250.567 175.745C251.008 176.15 251.228 176.643 251.228 177.226C251.228 177.801 251.008 178.295 250.567 178.707C250.134 179.112 249.609 179.314 248.991 179.314ZM258.731 188.412V198H254.874V181.636H258.56V184.417H258.752C259.128 183.501 259.729 182.773 260.552 182.233C261.383 181.693 262.41 181.423 263.631 181.423C264.76 181.423 265.744 181.665 266.582 182.148C267.427 182.631 268.081 183.33 268.542 184.246C269.011 185.163 269.242 186.274 269.235 187.581V198H265.378V188.178C265.378 187.084 265.094 186.228 264.526 185.61C263.965 184.992 263.187 184.683 262.193 184.683C261.518 184.683 260.918 184.832 260.393 185.131C259.874 185.422 259.466 185.844 259.167 186.398C258.876 186.952 258.731 187.624 258.731 188.412ZM280.272 204.477C278.887 204.477 277.697 204.289 276.703 203.913C275.709 203.543 274.91 203.046 274.306 202.421C273.702 201.796 273.283 201.104 273.049 200.344L276.522 199.502C276.678 199.822 276.905 200.138 277.204 200.45C277.502 200.77 277.903 201.033 278.407 201.239C278.919 201.452 279.562 201.558 280.336 201.558C281.43 201.558 282.335 201.292 283.052 200.759C283.77 200.234 284.128 199.367 284.128 198.16V195.06H283.937C283.738 195.457 283.447 195.866 283.063 196.285C282.687 196.704 282.186 197.055 281.561 197.339C280.943 197.624 280.165 197.766 279.228 197.766C277.971 197.766 276.831 197.471 275.808 196.881C274.792 196.285 273.983 195.397 273.379 194.218C272.782 193.032 272.484 191.548 272.484 189.765C272.484 187.968 272.782 186.452 273.379 185.216C273.983 183.973 274.796 183.032 275.819 182.393C276.841 181.746 277.981 181.423 279.238 181.423C280.197 181.423 280.986 181.587 281.604 181.913C282.229 182.233 282.726 182.62 283.095 183.075C283.464 183.522 283.745 183.945 283.937 184.342H284.15V181.636H287.953V198.266C287.953 199.665 287.619 200.823 286.952 201.739C286.284 202.656 285.371 203.341 284.214 203.795C283.056 204.25 281.742 204.477 280.272 204.477ZM280.304 194.74C281.121 194.74 281.817 194.541 282.392 194.143C282.967 193.746 283.404 193.174 283.702 192.428C284.001 191.683 284.15 190.788 284.15 189.744C284.15 188.714 284.001 187.812 283.702 187.038C283.411 186.263 282.978 185.663 282.403 185.237C281.834 184.804 281.135 184.587 280.304 184.587C279.444 184.587 278.727 184.811 278.152 185.259C277.577 185.706 277.143 186.32 276.852 187.102C276.561 187.876 276.415 188.756 276.415 189.744C276.415 190.745 276.561 191.622 276.852 192.375C277.15 193.121 277.587 193.703 278.162 194.122C278.745 194.534 279.459 194.74 280.304 194.74ZM302.724 198L298.1 181.636H302.031L304.908 193.142H305.057L307.997 181.636H311.886L314.826 193.078H314.986L317.82 181.636H321.762L317.127 198H313.111L310.043 186.942H309.819L306.751 198H302.724ZM331.23 198.32C329.589 198.32 328.172 197.979 326.979 197.297C325.793 196.608 324.88 195.635 324.241 194.378C323.602 193.114 323.282 191.626 323.282 189.914C323.282 188.231 323.602 186.754 324.241 185.482C324.887 184.204 325.789 183.21 326.947 182.499C328.105 181.782 329.465 181.423 331.027 181.423C332.036 181.423 332.988 181.587 333.882 181.913C334.784 182.233 335.58 182.73 336.269 183.405C336.965 184.08 337.512 184.939 337.909 185.983C338.307 187.02 338.506 188.256 338.506 189.69V190.873H325.093V188.273H334.809C334.802 187.535 334.642 186.878 334.33 186.303C334.017 185.72 333.581 185.262 333.02 184.928C332.466 184.594 331.819 184.428 331.081 184.428C330.292 184.428 329.6 184.619 329.003 185.003C328.407 185.379 327.941 185.876 327.608 186.494C327.281 187.105 327.114 187.776 327.107 188.508V190.777C327.107 191.729 327.281 192.545 327.629 193.227C327.977 193.902 328.463 194.42 329.088 194.783C329.713 195.138 330.445 195.315 331.283 195.315C331.844 195.315 332.352 195.237 332.806 195.081C333.261 194.918 333.655 194.68 333.989 194.367C334.323 194.055 334.575 193.668 334.745 193.206L338.346 193.611C338.119 194.562 337.686 195.393 337.047 196.104C336.414 196.807 335.605 197.354 334.618 197.744C333.63 198.128 332.501 198.32 331.23 198.32ZM345.625 188.412V198H341.769V181.636H345.455V184.417H345.646C346.023 183.501 346.623 182.773 347.447 182.233C348.278 181.693 349.304 181.423 350.526 181.423C351.655 181.423 352.639 181.665 353.477 182.148C354.322 182.631 354.975 183.33 355.437 184.246C355.906 185.163 356.137 186.274 356.129 187.581V198H352.273V188.178C352.273 187.084 351.989 186.228 351.421 185.61C350.86 184.992 350.082 184.683 349.088 184.683C348.413 184.683 347.813 184.832 347.287 185.131C346.769 185.422 346.36 185.844 346.062 186.398C345.771 186.952 345.625 187.624 345.625 188.412ZM368.221 181.636V184.619H358.814V181.636H368.221ZM361.137 177.716H364.993V193.078C364.993 193.597 365.071 193.994 365.227 194.271C365.391 194.541 365.604 194.726 365.867 194.825C366.129 194.925 366.421 194.974 366.74 194.974C366.982 194.974 367.202 194.957 367.401 194.921C367.607 194.886 367.763 194.854 367.869 194.825L368.519 197.84C368.313 197.911 368.019 197.989 367.635 198.075C367.259 198.16 366.797 198.21 366.25 198.224C365.284 198.252 364.414 198.107 363.64 197.787C362.866 197.46 362.252 196.956 361.797 196.274C361.35 195.592 361.129 194.74 361.137 193.717V177.716ZM382.265 198L377.641 181.636H381.572L384.449 193.142H384.598L387.538 181.636H391.427L394.367 193.078H394.527L397.361 181.636H401.303L396.668 198H392.652L389.584 186.942H389.36L386.292 198H382.265ZM403.995 198V181.636H407.735V184.364H407.905C408.203 183.419 408.715 182.691 409.439 182.18C410.171 181.661 411.005 181.402 411.943 181.402C412.156 181.402 412.394 181.413 412.656 181.434C412.926 181.448 413.15 181.473 413.328 181.509V185.056C413.164 184.999 412.905 184.95 412.55 184.907C412.202 184.857 411.865 184.832 411.538 184.832C410.835 184.832 410.203 184.985 409.642 185.29C409.088 185.589 408.651 186.004 408.331 186.537C408.012 187.07 407.852 187.684 407.852 188.38V198H403.995ZM422.354 198.32C420.756 198.32 419.371 197.968 418.199 197.265C417.027 196.562 416.118 195.578 415.472 194.314C414.832 193.05 414.513 191.572 414.513 189.882C414.513 188.192 414.832 186.711 415.472 185.44C416.118 184.168 417.027 183.181 418.199 182.478C419.371 181.775 420.756 181.423 422.354 181.423C423.952 181.423 425.337 181.775 426.509 182.478C427.68 183.181 428.586 184.168 429.225 185.44C429.871 186.711 430.195 188.192 430.195 189.882C430.195 191.572 429.871 193.05 429.225 194.314C428.586 195.578 427.68 196.562 426.509 197.265C425.337 197.968 423.952 198.32 422.354 198.32ZM422.375 195.23C423.241 195.23 423.966 194.992 424.548 194.516C425.131 194.033 425.564 193.387 425.848 192.577C426.139 191.768 426.285 190.866 426.285 189.871C426.285 188.87 426.139 187.964 425.848 187.155C425.564 186.338 425.131 185.688 424.548 185.205C423.966 184.722 423.241 184.481 422.375 184.481C421.487 184.481 420.749 184.722 420.159 185.205C419.577 185.688 419.14 186.338 418.849 187.155C418.565 187.964 418.423 188.87 418.423 189.871C418.423 190.866 418.565 191.768 418.849 192.577C419.14 193.387 419.577 194.033 420.159 194.516C420.749 194.992 421.487 195.23 422.375 195.23ZM437.324 188.412V198H433.468V181.636H437.154V184.417H437.346C437.722 183.501 438.322 182.773 439.146 182.233C439.977 181.693 441.003 181.423 442.225 181.423C443.354 181.423 444.338 181.665 445.176 182.148C446.021 182.631 446.675 183.33 447.136 184.246C447.605 185.163 447.836 186.274 447.829 187.581V198H443.972V188.178C443.972 187.084 443.688 186.228 443.12 185.61C442.559 184.992 441.781 184.683 440.787 184.683C440.112 184.683 439.512 184.832 438.986 185.131C438.468 185.422 438.059 185.844 437.761 186.398C437.47 186.952 437.324 187.624 437.324 188.412ZM458.866 204.477C457.481 204.477 456.291 204.289 455.297 203.913C454.302 203.543 453.503 203.046 452.9 202.421C452.296 201.796 451.877 201.104 451.643 200.344L455.116 199.502C455.272 199.822 455.499 200.138 455.797 200.45C456.096 200.77 456.497 201.033 457.001 201.239C457.513 201.452 458.155 201.558 458.93 201.558C460.023 201.558 460.929 201.292 461.646 200.759C462.363 200.234 462.722 199.367 462.722 198.16V195.06H462.53C462.331 195.457 462.04 195.866 461.657 196.285C461.28 196.704 460.78 197.055 460.155 197.339C459.537 197.624 458.759 197.766 457.822 197.766C456.564 197.766 455.425 197.471 454.402 196.881C453.386 196.285 452.577 195.397 451.973 194.218C451.376 193.032 451.078 191.548 451.078 189.765C451.078 187.968 451.376 186.452 451.973 185.216C452.577 183.973 453.39 183.032 454.412 182.393C455.435 181.746 456.575 181.423 457.832 181.423C458.791 181.423 459.579 181.587 460.197 181.913C460.822 182.233 461.319 182.62 461.689 183.075C462.058 183.522 462.339 183.945 462.53 184.342H462.743V181.636H466.547V198.266C466.547 199.665 466.213 200.823 465.545 201.739C464.878 202.656 463.965 203.341 462.807 203.795C461.65 204.25 460.336 204.477 458.866 204.477ZM458.898 194.74C459.714 194.74 460.41 194.541 460.986 194.143C461.561 193.746 461.998 193.174 462.296 192.428C462.594 191.683 462.743 190.788 462.743 189.744C462.743 188.714 462.594 187.812 462.296 187.038C462.005 186.263 461.572 185.663 460.996 185.237C460.428 184.804 459.729 184.587 458.898 184.587C458.038 184.587 457.321 184.811 456.746 185.259C456.17 185.706 455.737 186.32 455.446 187.102C455.155 187.876 455.009 188.756 455.009 189.744C455.009 190.745 455.155 191.622 455.446 192.375C455.744 193.121 456.181 193.703 456.756 194.122C457.339 194.534 458.052 194.74 458.898 194.74Z" fill="white"/>
<defs>
<linearGradient id="paint0_linear_1106_248" x1="-8.65473e-07" y1="6" x2="591.5" y2="338" gradientUnits="userSpaceOnUse">
<stop stop-color="#212121"/>
<stop offset="1" stop-color="#161616"/>
</linearGradient>
</defs>
</svg>
