<svg width="30" height="30" viewBox="0 0 30 30" fill="none" xmlns="http://www.w3.org/2000/svg">
<g clip-path="url(#clip0_1096_220)">
<rect width="30" height="30" rx="8" fill="#161616"/>
<path d="M9.44 18.336C9.44 19.664 9.672 20.624 10.136 21.216C10.6 21.792 11.328 22.08 12.32 22.08C13.232 22.08 14.096 21.872 14.912 21.456C15.744 21.024 16.44 20.432 17 19.68L17.552 19.92C17.024 21.28 16.104 22.368 14.792 23.184C13.496 23.984 12.136 24.384 10.712 24.384C8.856 24.384 7.512 23.92 6.68 22.992C5.864 22.048 5.456 20.544 5.456 18.48C5.456 17.152 5.624 15.768 5.96 14.328C6.296 12.888 6.76 11.6 7.352 10.464C8.12 9.008 9.048 7.904 10.136 7.152C11.24 6.384 12.472 6 13.832 6C15.112 6 16.096 6.28 16.784 6.84C17.488 7.384 17.84 8.176 17.84 9.216C17.84 9.936 17.696 10.488 17.408 10.872C17.12 11.24 16.704 11.424 16.16 11.424C15.888 11.424 15.632 11.376 15.392 11.28C15.168 11.168 14.968 11.008 14.792 10.8C15.08 10.656 15.336 10.368 15.56 9.936C15.784 9.488 15.896 9.04 15.896 8.592C15.896 8.128 15.768 7.768 15.512 7.512C15.256 7.256 14.896 7.128 14.432 7.128C13.728 7.128 13.032 7.56 12.344 8.424C11.656 9.272 11.056 10.448 10.544 11.952C10.192 12.976 9.92 14.048 9.728 15.168C9.536 16.272 9.44 17.328 9.44 18.336ZM16.7377 21.264C16.7377 21.056 16.7537 20.824 16.7857 20.568C16.8177 20.296 16.8657 20.008 16.9297 19.704L19.4977 7.68L23.0497 7.2L20.2897 20.16C20.2577 20.304 20.2337 20.44 20.2177 20.568C20.2017 20.68 20.1937 20.8 20.1937 20.928C20.1937 21.248 20.2657 21.48 20.4097 21.624C20.5697 21.752 20.8257 21.816 21.1777 21.816C21.6257 21.816 22.0497 21.624 22.4497 21.24C22.8497 20.84 23.1457 20.328 23.3377 19.704H24.3457C23.8337 21.16 23.1457 22.264 22.2817 23.016C21.4177 23.768 20.4257 24.144 19.3057 24.144C18.5057 24.144 17.8737 23.896 17.4097 23.4C16.9617 22.888 16.7377 22.176 16.7377 21.264Z" fill="white"/>
</g>
<defs>
<clipPath id="clip0_1096_220">
<rect width="30" height="30" fill="white"/>
</clipPath>
</defs>
</svg>
