<svg width="213" height="61" viewBox="0 0 213 61" fill="none" xmlns="http://www.w3.org/2000/svg">
<path d="M10.875 45.7812C7 45.7812 4.21875 44.8958 2.53125 43.125C0.84375 41.3542 0 39.0938 0 36.3438C0 34.0729 0.395833 31.6979 1.1875 29.2188C2 26.7188 3.09375 24.2396 4.46875 21.7812C5.86458 19.3021 7.44792 16.9271 9.21875 14.6562C11.0104 12.3646 12.8854 10.2917 14.8438 8.4375C16.8021 6.5625 18.75 5 20.6875 3.75C22.5 2.58333 24.3229 1.66667 26.1562 1C27.9896 0.333333 29.7917 0 31.5625 0C33.3333 0 34.8542 0.416667 36.125 1.25C37.4167 2.08333 38.0625 3.54167 38.0625 5.625C38.0625 6.47917 37.8646 7.55208 37.4688 8.84375C37.0938 10.1146 36.5521 11.3854 35.8438 12.6562C35.1146 13.9688 34.2396 15.0625 33.2188 15.9375C32.2188 16.7917 31.1354 17.2188 29.9688 17.2188C29.5521 17.2188 28.9896 17.125 28.2812 16.9375C27.5729 16.75 27.2188 16.2812 27.2188 15.5312C27.2188 15.2812 27.2812 14.9896 27.4062 14.6562C27.5521 14.3229 27.8021 13.9375 28.1562 13.5C28.6562 12.9583 29.1875 12.2917 29.75 11.5C30.3125 10.6875 30.7917 9.85417 31.1875 9C31.6042 8.14583 31.8125 7.39583 31.8125 6.75C31.8125 5.41667 31.1875 4.75 29.9375 4.75C29.0417 4.75 28.0312 5.04167 26.9062 5.625C25.7812 6.20833 24.6042 7.01042 23.375 8.03125C22.125 9.05208 20.7708 10.3646 19.3125 11.9688C17.875 13.5521 16.4479 15.3125 15.0312 17.25C13.6146 19.1667 12.3229 21.1458 11.1562 23.1875C9.98958 25.2292 9.05208 27.2396 8.34375 29.2188C7.65625 31.1771 7.3125 32.9792 7.3125 34.625C7.3125 36.1458 7.71875 37.3646 8.53125 38.2812C9.34375 39.1979 10.6875 39.6562 12.5625 39.6562C13.8125 39.6562 15.1667 39.3438 16.625 38.7188C18.1042 38.0938 19.6042 37.3021 21.125 36.3438C22.6667 35.3646 24.1562 34.3542 25.5938 33.3125C27.0521 32.2708 28.3854 31.3229 29.5938 30.4688C30.8229 29.6146 31.8646 29 32.7188 28.625C32.8021 28.5417 32.9271 28.5 33.0938 28.5C33.4062 28.5 33.625 28.75 33.75 29.25C33.8542 29.8333 33.9062 30.4167 33.9062 31C33.9062 31.3542 33.8542 31.7917 33.75 32.3125C33.6667 32.8125 33.375 33.3958 32.875 34.0625C31.5208 35.6875 29.9271 37.2083 28.0938 38.625C26.2604 40.0417 24.3333 41.2917 22.3125 42.375C20.2917 43.4375 18.2917 44.2708 16.3125 44.875C14.3542 45.4792 12.5417 45.7812 10.875 45.7812ZM34 45.875C32.2917 45.875 31.1146 45.4479 30.4688 44.5938C29.8438 43.7396 29.5312 42.6979 29.5312 41.4688C29.5312 40.4479 29.6771 39.4062 29.9688 38.3438C30.2812 37.2604 30.6458 36.2708 31.0625 35.375C31.7917 33.75 32.5312 32.1354 33.2812 30.5312C34.0312 28.9271 34.7188 27.4583 35.3438 26.125L44.8125 5.96875C45.2917 4.92708 46.0104 4.25 46.9688 3.9375C47.9271 3.625 48.8021 3.65625 49.5938 4.03125C50.4062 4.38542 50.8125 5.04167 50.8125 6C50.8125 6.375 50.7188 6.77083 50.5312 7.1875C50.3646 7.60417 50.1458 8.05208 49.875 8.53125C49.125 9.94792 48.1667 11.8125 47 14.125C45.8542 16.4375 44.5833 19.0417 43.1875 21.9375C41.6667 25.125 40.3854 27.8021 39.3438 29.9688C38.3229 32.1146 37.3646 34.1458 36.4688 36.0625C36.2396 36.5417 36.0104 37.1042 35.7812 37.75C35.5729 38.375 35.4688 38.9375 35.4688 39.4375C35.4688 40.125 35.7708 40.4688 36.375 40.4688C37.0417 40.4688 37.9271 40.1979 39.0312 39.6562C40.1562 39.0938 41.3229 38.3958 42.5312 37.5625C43.7604 36.75 44.9479 35.9062 46.0938 35.0312C47.2396 34.1354 48.3021 33.2708 49.2812 32.4375C49.6146 32.1667 50.0104 32.0312 50.4688 32.0312C51.4271 32.0312 51.9062 32.5625 51.9062 33.625C51.9062 34.0625 51.7604 34.5521 51.4688 35.0938C51.1771 35.6354 50.6667 36.1667 49.9375 36.6875C48.6042 37.9167 47.2604 39.0833 45.9062 40.1875C44.5729 41.2708 43.2292 42.2396 41.875 43.0938C40.5417 43.9271 39.2083 44.5938 37.875 45.0938C36.5417 45.6146 35.25 45.875 34 45.875ZM58.8438 20.2812C57.5521 20.2812 56.6458 20.0833 56.125 19.6875C55.6042 19.2708 55.3125 18.7292 55.25 18.0625C55.25 17.0833 55.6042 16.125 56.3125 15.1875C57.0417 14.2292 58.1146 13.75 59.5312 13.75C60.7396 13.75 61.5833 13.9896 62.0625 14.4688C62.5417 14.9271 62.7812 15.5104 62.7812 16.2188C62.7812 17.0104 62.4688 17.8854 61.8438 18.8438C61.2396 19.8021 60.2396 20.2812 58.8438 20.2812ZM51.1875 45.875C49.5 45.875 48.1667 45.4479 47.1875 44.5938C46.2292 43.7188 45.75 42.3646 45.75 40.5312C45.75 39.2604 45.9792 38 46.4375 36.75C46.9167 35.4792 47.4375 34.2917 48 33.1875C48.5833 32.0625 49.0417 31.0833 49.375 30.25C49.4792 29.9792 49.6562 29.5625 49.9062 29C50.1771 28.4375 50.4583 27.8646 50.75 27.2812L51.8125 25.0938C52.1667 24.5104 52.5729 24.0938 53.0312 23.8438C53.4896 23.5938 53.9583 23.4688 54.4375 23.4688C55.2292 23.4688 55.9062 23.7292 56.4688 24.25C57.0521 24.75 57.3438 25.3958 57.3438 26.1875C57.3229 26.375 57.2917 26.5625 57.25 26.75C57.2292 26.9375 57.1667 27.125 57.0625 27.3125C56.6042 28.1458 56.2083 28.9271 55.875 29.6562C55.5417 30.3646 55.1979 31.0833 54.8438 31.8125C54.5521 32.4167 54.1875 33.1562 53.75 34.0312C53.3125 34.9062 52.9271 35.7917 52.5938 36.6875C52.2604 37.5625 52.0938 38.3438 52.0938 39.0312C52.0938 39.5938 52.2292 39.9688 52.5 40.1562C52.7917 40.3229 53.1979 40.4062 53.7188 40.4062C54.5521 40.4062 55.4688 40.1458 56.4688 39.625C57.4896 39.1042 58.4583 38.4583 59.375 37.6875C60.3333 36.9167 61.2188 36.1354 62.0312 35.3438C62.8438 34.5312 63.4479 33.875 63.8438 33.375C64.2396 32.9792 64.6562 32.7812 65.0938 32.7812C65.4688 32.7812 65.7708 32.9479 66 33.2812C66.25 33.6146 66.375 34.0417 66.375 34.5625C66.375 35.0417 66.25 35.5521 66 36.0938C65.7708 36.6354 65.3854 37.1458 64.8438 37.625C63.4688 39.0208 62.0312 40.3542 60.5312 41.625C59.0312 42.875 57.4896 43.8958 55.9062 44.6875C54.3438 45.4792 52.7708 45.875 51.1875 45.875ZM54.4688 60.9688C53.7188 60.9688 53.1042 60.8125 52.625 60.5C52.125 60.2083 51.875 59.6354 51.875 58.7812C51.875 57.9688 52.0938 57.1042 52.5312 56.1875C52.9688 55.2708 53.3438 54.4688 53.6562 53.7812C55.1146 51.0938 56.6146 48.3438 58.1562 45.5312C59.6979 42.7396 61.1354 39.9896 62.4688 37.2812C63.8229 34.5729 64.9062 32 65.7188 29.5625C65.8646 29.2292 66.0729 28.7396 66.3438 28.0938C66.6146 27.4271 66.9479 26.7396 67.3438 26.0312C67.7396 25.3229 68.1771 24.7188 68.6562 24.2188C69.1354 23.7188 69.6458 23.4688 70.1875 23.4688C71.7708 23.4688 72.5625 24.1042 72.5625 25.375C72.5625 25.6042 72.4896 26.0833 72.3438 26.8125C72.2188 27.5208 72.0833 28.0104 71.9375 28.2812C72.9583 27.3438 74.0833 26.4271 75.3125 25.5312C76.5417 24.6146 77.8229 23.8646 79.1562 23.2812C80.5104 22.6771 81.8438 22.375 83.1562 22.375C84.5312 22.375 85.8125 22.7083 87 23.375C88.2083 24.0208 88.8125 24.9896 88.8125 26.2812C88.8125 27.5104 88.2812 28.8854 87.2188 30.4062C86.1771 31.9062 84.9792 33.3646 83.625 34.7812C82.8333 35.6146 82.0312 36.4271 81.2188 37.2188C80.4062 37.9896 79.7188 38.6562 79.1562 39.2188C78.6146 39.7812 78.3333 40.1562 78.3125 40.3438C78.3125 40.9062 78.7188 41.1875 79.5312 41.1875C80.3646 41.1875 82.0833 40.2917 84.6875 38.5C87.2917 36.6875 90.9792 33.9896 95.75 30.4062C96.3958 30.0312 96.9062 29.8438 97.2812 29.8438C97.7396 29.8438 98.0833 30.0208 98.3125 30.375C98.5417 30.7083 98.6562 31.125 98.6562 31.625C98.6562 32.1667 98.5104 32.7188 98.2188 33.2812C97.9479 33.8438 97.5312 34.3125 96.9688 34.6875C94.8021 36.2917 92.8125 37.8125 91 39.25C89.2292 40.6458 87.5833 41.8229 86.0625 42.7812C84.5 43.7812 82.9792 44.5521 81.5 45.0938C80.0208 45.6354 78.4375 45.9062 76.75 45.9062C75.1667 45.9062 73.9375 45.6146 73.0625 45.0312C72.2083 44.4479 71.7812 43.6458 71.7812 42.625V42.375L71.8125 42.125C71.9375 41.2083 72.5521 40.0938 73.6562 38.7812C74.7812 37.4479 76.0104 36.1146 77.3438 34.7812C78.6354 33.4896 79.8125 32.2604 80.875 31.0938C81.9375 29.9271 82.4688 29.0312 82.4688 28.4062C82.4688 27.8646 82.0208 27.5938 81.125 27.5938C79.8958 27.5938 78.6042 27.9792 77.25 28.75C75.9167 29.5208 74.6354 30.5104 73.4062 31.7188C72.1354 32.9271 71.0104 34.1875 70.0312 35.5C69.0521 36.8125 68.2396 38.0312 67.5938 39.1562L65.4688 43.125C64.9896 44.0208 64.5729 44.8021 64.2188 45.4688C63.8854 46.1354 63.6562 46.5833 63.5312 46.8125C63.3854 47.0833 63.1042 47.6771 62.6875 48.5938C62.2917 49.5104 61.8021 50.6146 61.2188 51.9062C60.6354 53.1771 60.1354 54.2708 59.7188 55.1875C59.3229 56.125 59.0833 56.7188 59 56.9688C58.6042 58.0312 58.0417 58.9583 57.3125 59.75C56.5833 60.5625 55.6354 60.9688 54.4688 60.9688ZM85.0938 60.9688C84.3438 60.9688 83.7292 60.8125 83.25 60.5C82.75 60.2083 82.5 59.6354 82.5 58.7812C82.5 57.9688 82.7188 57.1042 83.1562 56.1875C83.5938 55.2708 83.9688 54.4688 84.2812 53.7812C85.7396 51.0938 87.2396 48.3438 88.7812 45.5312C90.3229 42.7396 91.7604 39.9896 93.0938 37.2812C94.4479 34.5729 95.5312 32 96.3438 29.5625C96.4896 29.2292 96.6979 28.7396 96.9688 28.0938C97.2396 27.4271 97.5729 26.7396 97.9688 26.0312C98.3646 25.3229 98.8021 24.7188 99.2812 24.2188C99.7604 23.7188 100.271 23.4688 100.812 23.4688C102.396 23.4688 103.188 24.1042 103.188 25.375C103.188 25.6042 103.115 26.0833 102.969 26.8125C102.844 27.5208 102.708 28.0104 102.562 28.2812C103.583 27.3438 104.708 26.4271 105.938 25.5312C107.167 24.6146 108.448 23.8646 109.781 23.2812C111.135 22.6771 112.469 22.375 113.781 22.375C115.156 22.375 116.438 22.7083 117.625 23.375C118.833 24.0208 119.438 24.9896 119.438 26.2812C119.438 27.5104 118.906 28.8854 117.844 30.4062C116.802 31.9062 115.604 33.3646 114.25 34.7812C113.458 35.6146 112.656 36.4271 111.844 37.2188C111.031 37.9896 110.344 38.6562 109.781 39.2188C109.24 39.7812 108.958 40.1562 108.938 40.3438C108.938 40.9062 109.344 41.1875 110.156 41.1875C110.99 41.1875 112.708 40.2917 115.312 38.5C117.917 36.6875 121.604 33.9896 126.375 30.4062C127.021 30.0312 127.531 29.8438 127.906 29.8438C128.365 29.8438 128.708 30.0208 128.938 30.375C129.167 30.7083 129.281 31.125 129.281 31.625C129.281 32.1667 129.135 32.7188 128.844 33.2812C128.573 33.8438 128.156 34.3125 127.594 34.6875C125.427 36.2917 123.438 37.8125 121.625 39.25C119.854 40.6458 118.208 41.8229 116.688 42.7812C115.125 43.7812 113.604 44.5521 112.125 45.0938C110.646 45.6354 109.062 45.9062 107.375 45.9062C105.792 45.9062 104.562 45.6146 103.688 45.0312C102.833 44.4479 102.406 43.6458 102.406 42.625V42.375L102.438 42.125C102.562 41.2083 103.177 40.0938 104.281 38.7812C105.406 37.4479 106.635 36.1146 107.969 34.7812C109.26 33.4896 110.438 32.2604 111.5 31.0938C112.562 29.9271 113.094 29.0312 113.094 28.4062C113.094 27.8646 112.646 27.5938 111.75 27.5938C110.521 27.5938 109.229 27.9792 107.875 28.75C106.542 29.5208 105.26 30.5104 104.031 31.7188C102.76 32.9271 101.635 34.1875 100.656 35.5C99.6771 36.8125 98.8646 38.0312 98.2188 39.1562L96.0938 43.125C95.6146 44.0208 95.1979 44.8021 94.8438 45.4688C94.5104 46.1354 94.2812 46.5833 94.1562 46.8125C94.0104 47.0833 93.7292 47.6771 93.3125 48.5938C92.9167 49.5104 92.4271 50.6146 91.8438 51.9062C91.2604 53.1771 90.7604 54.2708 90.3438 55.1875C89.9479 56.125 89.7083 56.7188 89.625 56.9688C89.2292 58.0312 88.6667 58.9583 87.9375 59.75C87.2083 60.5625 86.2604 60.9688 85.0938 60.9688ZM129.344 45.875C127.156 45.875 125.167 45.3854 123.375 44.4062C121.583 43.4062 120.438 41.8333 119.938 39.6875C119.896 39.4792 119.875 39.3438 119.875 39.2812C119.875 38.7188 120.073 38.2396 120.469 37.8438C120.865 37.4271 121.302 37.2188 121.781 37.2188C122.01 37.2188 122.26 37.2604 122.531 37.3438C122.823 37.4271 123.042 37.6146 123.188 37.9062C123.729 38.8854 124.656 39.6771 125.969 40.2812C127.302 40.8646 128.604 41.1562 129.875 41.1562C131.229 41.1562 132.406 40.8958 133.406 40.375C134.427 39.8542 134.938 39 134.938 37.8125C134.938 36.3542 134.521 35.0625 133.688 33.9375C132.875 32.8125 131.844 31.8021 130.594 30.9062C129.365 29.9896 128.125 29.1458 126.875 28.375C126.771 28.3125 126.615 28.1354 126.406 27.8438C126.198 27.5312 126.094 27.2188 126.094 26.9062C126.094 26.6562 126.156 26.4583 126.281 26.3125C126.948 25.4167 127.802 24.5417 128.844 23.6875C129.885 22.8333 131.031 22.4062 132.281 22.4062C133.198 22.4062 133.948 22.6354 134.531 23.0938C135.135 23.5312 135.438 23.9688 135.438 24.4062C135.438 24.9896 135.167 25.5417 134.625 26.0625C134.083 26.5625 133.521 27.0417 132.938 27.5C135.417 28.7917 137.385 30.4375 138.844 32.4375C140.302 34.4167 141.031 36.3542 141.031 38.25C141.031 39.8542 140.448 41.2292 139.281 42.375C138.135 43.5 136.667 44.3646 134.875 44.9688C133.104 45.5729 131.26 45.875 129.344 45.875ZM145.594 45.875C143.948 45.875 142.802 45.4688 142.156 44.6562C141.51 43.8438 141.188 42.8438 141.188 41.6562C141.188 40.6146 141.365 39.5312 141.719 38.4062C142.073 37.2812 142.469 36.2708 142.906 35.375L146.562 27.875H145.219C144.052 27.875 143.25 27.6875 142.812 27.3125C142.375 26.9375 142.156 26.5104 142.156 26.0312C142.156 25.5521 142.427 25.0104 142.969 24.4062C143.51 23.7812 144.25 23.4688 145.188 23.4688H148.562L155.156 10.375C155.573 9.58333 156.083 9.02083 156.688 8.6875C157.312 8.33333 157.958 8.15625 158.625 8.15625C159.25 8.15625 159.823 8.32292 160.344 8.65625C160.865 8.98958 161.125 9.54167 161.125 10.3125C161.125 10.7083 161.031 11.1146 160.844 11.5312C160.677 11.9271 160.448 12.3958 160.156 12.9375C159.823 13.5625 159.375 14.4062 158.812 15.4688C158.25 16.5104 157.552 17.7708 156.719 19.25L154.469 23.4688H164.656C165.656 23.4688 166.469 23.6042 167.094 23.875C167.74 24.125 168.062 24.6979 168.062 25.5938C168.062 26.0521 167.896 26.5 167.562 26.9375C167.229 27.375 166.51 27.6354 165.406 27.7188H152.406L150.219 32.0938L148.281 36.0625C148.031 36.5625 147.781 37.1458 147.531 37.8125C147.302 38.4583 147.188 39.0312 147.188 39.5312C147.188 40.1562 147.479 40.4688 148.062 40.4688C148.729 40.4688 149.625 40.1875 150.75 39.625C151.875 39.0625 153.062 38.375 154.312 37.5625C155.583 36.75 156.802 35.9062 157.969 35.0312C159.135 34.1354 160.208 33.2708 161.188 32.4375C161.542 32.2083 161.854 32.0938 162.125 32.0938C162.583 32.0938 162.927 32.3438 163.156 32.8438C163.385 33.3438 163.406 33.9479 163.219 34.6562C163.052 35.3646 162.562 36.0417 161.75 36.6875C160.396 37.9167 159.021 39.0833 157.625 40.1875C156.25 41.2708 154.885 42.2396 153.531 43.0938C152.156 43.9271 150.802 44.5938 149.469 45.0938C148.135 45.6146 146.844 45.875 145.594 45.875ZM165.094 45.875C163.427 45.875 162 45.4688 160.812 44.6562C159.646 43.8229 158.75 42.7396 158.125 41.4062C157.521 40.0521 157.219 38.6042 157.219 37.0625C157.219 35.7083 157.604 34.1979 158.375 32.5312C159.167 30.8438 160.292 29.2292 161.75 27.6875C163.208 26.1458 164.948 24.875 166.969 23.875C169.01 22.8542 171.229 22.3438 173.625 22.3438C175.354 22.3438 176.646 22.7604 177.5 23.5938C178.354 24.4271 178.781 25.5833 178.781 27.0625C178.781 27.9375 178.552 28.8542 178.094 29.8125C177.635 30.7708 176.844 31.7396 175.719 32.7188C174.594 33.7188 173.083 34.7396 171.188 35.7812C169.312 36.8021 166.958 37.8333 164.125 38.875C164.354 40.1667 165.396 40.8125 167.25 40.8125C168.688 40.8125 170.24 40.5208 171.906 39.9375C173.573 39.3333 175.177 38.6458 176.719 37.875C178.26 37.125 179.583 36.4167 180.688 35.75C181.792 35.0833 182.448 34.7083 182.656 34.625C182.844 34.5 183.01 34.4271 183.156 34.4062C183.323 34.3854 183.469 34.375 183.594 34.375C184.094 34.375 184.438 34.5729 184.625 34.9688C184.833 35.3438 184.938 35.6562 184.938 35.9062C184.938 36.0938 184.917 36.3229 184.875 36.5938C184.833 36.8438 184.677 37.1354 184.406 37.4688C184.135 37.7396 183.344 38.3333 182.031 39.25C180.719 40.1667 179.312 41.0521 177.812 41.9062C175.979 42.9271 173.938 43.8438 171.688 44.6562C169.438 45.4688 167.24 45.875 165.094 45.875ZM163.656 35.2812C165.01 34.5729 166.385 33.75 167.781 32.8125C169.198 31.8542 170.271 31.1562 171 30.7188C171.979 30.0938 172.625 29.5417 172.938 29.0625C173.292 28.5417 173.469 28.1042 173.469 27.75C173.469 27.4375 173.365 27.1875 173.156 27C172.969 26.8125 172.75 26.6979 172.5 26.6562L172.219 26.625H171.938C170.792 26.625 169.729 26.9583 168.75 27.625C167.792 28.2708 166.979 29.0833 166.312 30.0625C165.604 31.0833 165.031 32.0417 164.594 32.9375C164.177 33.8333 163.865 34.6146 163.656 35.2812ZM179.875 45.875C178.833 45.875 178.312 45.3438 178.312 44.2812C178.312 44.0521 178.344 43.7708 178.406 43.4375C178.49 43.0833 178.646 42.6979 178.875 42.2812C179.229 41.6146 179.615 40.8333 180.031 39.9375C180.448 39.0208 180.885 38.0729 181.344 37.0938C181.844 36.0312 182.417 34.8125 183.062 33.4375C183.729 32.0417 184.51 30.4375 185.406 28.625C185.115 28.375 184.865 28.0729 184.656 27.7188C184.469 27.3438 184.375 26.8854 184.375 26.3438C184.375 25.3646 184.75 24.6458 185.5 24.1875C186.271 23.7083 187.188 23.4688 188.25 23.4688C189.292 23.4688 190.302 23.6562 191.281 24.0312C192.281 24.3854 192.781 24.9271 192.781 25.6562C192.781 25.7396 192.708 25.9375 192.562 26.25C192.438 26.5417 192.375 26.7396 192.375 26.8438C192.375 26.8854 192.385 26.9062 192.406 26.9062H192.438L192.5 26.875C194.042 25.9167 195.698 25.1042 197.469 24.4375C199.24 23.7708 200.698 23.4375 201.844 23.4375C202.781 23.4375 203.5 23.6667 204 24.125C204.521 24.5625 204.781 25.3125 204.781 26.375C204.781 26.6042 204.771 26.8542 204.75 27.125C204.729 27.375 204.688 27.6458 204.625 27.9375C204.479 28.7083 203.896 29.7083 202.875 30.9375C201.854 32.1667 200.771 33.3542 199.625 34.5C199.104 35.0208 198.479 35.6458 197.75 36.375C197.021 37.0833 196.385 37.7396 195.844 38.3438C195.302 38.9271 195.031 39.3229 195.031 39.5312C195.031 39.8229 195.135 39.9688 195.344 39.9688C196.844 39.3229 198.542 38.5312 200.438 37.5938C202.333 36.6354 204.167 35.6771 205.938 34.7188C207.708 33.7604 209.156 32.9583 210.281 32.3125C210.719 32.0625 211.094 31.9375 211.406 31.9375C212.281 31.9375 212.719 32.3958 212.719 33.3125C212.719 33.7917 212.51 34.3438 212.094 34.9688C211.698 35.5729 211.021 36.2083 210.062 36.875C209.167 37.4375 207.938 38.2188 206.375 39.2188C204.833 40.1979 203.302 41.125 201.781 42C200.281 42.8542 198.844 43.5833 197.469 44.1875C196.115 44.7917 194.979 45.0938 194.062 45.0938C192.625 45.0938 191.542 44.75 190.812 44.0625C190.104 43.375 189.75 42.4896 189.75 41.4062C189.75 41.2188 189.76 41.0938 189.781 41.0312C190.01 39.6979 190.49 38.4062 191.219 37.1562C191.948 35.9062 192.708 34.7604 193.5 33.7188C194.292 32.6979 194.99 31.75 195.594 30.875C196.219 30 196.531 29.25 196.531 28.625C196.531 28.3125 196.417 28.1562 196.188 28.1562C195.854 28.1562 195.25 28.3229 194.375 28.6562C193.5 28.9688 192.635 29.3854 191.781 29.9062C190.927 30.4271 190.344 30.9792 190.031 31.5625C189.615 32.2917 189.083 33.3125 188.438 34.625C187.812 35.9167 187.188 37.2396 186.562 38.5938C185.958 39.9479 185.448 41.0729 185.031 41.9688C184.573 43.1146 183.812 44.0521 182.75 44.7812C181.708 45.5104 180.75 45.875 179.875 45.875Z" fill="white"/>
</svg>
